<?xml version="1.0" encoding="utf-8"?>
<!-- Generator: $$$/GeneralStr/196=Adobe Illustrator 27.6.0, SVG Export Plug-In . SVG Version: 6.00 Build 0)  -->
<svg version="1.1" id="Ebene_1" xmlns="http://www.w3.org/2000/svg" xmlns:xlink="http://www.w3.org/1999/xlink" x="0px" y="0px"
	 viewBox="0 0 152.4 138" style="enable-background:new 0 0 152.4 138;" xml:space="preserve">
<path d="M142.6,117.9V18.8c0-5.9-4.8-10.6-10.6-10.6H92.2c26.6,7.1,46.3,31.3,46.3,60.2s-19.7,53.1-46.3,60.2H132
	C137.9,128.6,142.6,123.8,142.6,117.9L142.6,117.9L142.6,117.9z M60.1,8.2H20.3c-5.9,0-10.6,4.8-10.6,10.6v99.1
	c0,5.9,4.8,10.6,10.6,10.6h39.8c-26.6-7.1-46.3-31.3-46.3-60.2S33.4,15.2,60.1,8.2L60.1,8.2z"/>
</svg>
